ffmpeg started on 2025-06-28 at 17:49:51
Report written to "D:\Convert\FFMetrics\reports\ssim_report-6.txt"
Log level: 32
Command line:
ffmpeg -hide_banner -nostdin -i "G:\\\xc0\xed\xe8\xec\xe5\\\xce\xed\xe3\xee\xe8\xed\xe3\xe8\\!_37_\xc7\xe8\xec\xe0_2025\\JamClub\\100 \xe4\xe5\xe2\xf3\xf8\xe5\xea, \xea\xee\xf2\xee\xf0\xfb\xe5 \xee\xf7\xe5\xed\xfc-\xee\xf7\xe5\xed\xfc-\xee\xf7\xe5\xed\xfc-\xee\xf7\xe5\xed\xfc-\xee\xf7\xe5\xed\xfc \xf1\xe8\xeb\xfc\xed\xee \xf2\xe5\xe1\xff \xeb\xfe\xe1\xff\xf2\\\xd2\xc2-2\\JamClub_The_100_Girlfriends_Who_Really_Really_Really_Really_REALLY_2_01_HEVC.mkv" -i "G:\\\xc0\xed\xe8\xec\xe5\\\xce\xed\xe3\xee\xe8\xed\xe3\xe8\\!_37_\xc7\xe8\xec\xe0_2025\\JamClub\\100 \xe4\xe5\xe2\xf3\xf8\xe5\xea, \xea\xee\xf2\xee\xf0\xfb\xe5 \xee\xf7\xe5\xed\xfc-\xee\xf7\xe5\xed\xfc-\xee\xf7\xe5\xed\xfc-\xee\xf7\xe5\xed\xfc-\xee\xf7\xe5\xed\xfc \xf1\xe8\xeb\xfc\xed\xee \xf2\xe5\xe1\xff \xeb\xfe\xe1\xff\xf2\\\xd2\xc2-2\\JamClub_The_100_Girlfriends_Who_Really_Really_Really_Really_REALLY_2_01.mp4" -lavfi "[0:v]settb=AVTB,setpts=PTS-STARTPTS,format=pix_fmts=yuv420p10,fps=24000/1001,scale=1920:1080:flags=bicubic[main];[1:v]settb=AVTB,setpts=PTS-STARTPTS,format=pix_fmts=yuv420p,fps=24000/1001,scale=1920:1080:flags=bicubic[ref];[main][ref]ssim=eof_action=endall:stats_file='D\\:/Convert/FFMetrics/logs/ssim_logfile-6.txt'" -f null -
Input #0, matroska,webm, from 'G:\Аниме\Онгоинги\!_37_Зима_2025\JamClub\100 девушек, которые очень-очень-очень-очень-очень сильно тебя любят\ТВ-2\JamClub_The_100_Girlfriends_Who_Really_Really_Really_Really_REALLY_2_01_HEVC.mkv':
  Metadata:
    COMPATIBLE_BRANDS: isomiso2avc1mp41
    MAJOR_BRAND     : isom
    MINOR_VERSION   : 512
    ENCODER         : Lavf61.7.100
  Duration: 00:24:12.27, start: -0.001000, bitrate: 1541 kb/s
  Stream #0:0: Video: hevc (Main 10), yuv420p10le(tv, bt709, progressive), 1920x1080 [SAR 1:1 DAR 16:9], 23.98 fps, 23.98 tbr, 1k tbn (default)
      Metadata:
        HANDLER_NAME    : VideoHandler
        VENDOR_ID       : [0][0][0][0]
        ENCODER         : Lavc61.19.100 libx265
        BPS             : 1344515
        DURATION        : 00:24:12.200708333
        NUMBER_OF_FRAMES: 34818
        NUMBER_OF_BYTES : 244063246
        _STATISTICS_WRITING_APP: mkvpropedit v66.0.0 ('Josie') 64-bit
        _STATISTICS_WRITING_DATE_UTC: 2025-06-28 12:14:20
        _STATISTICS_TAGS: BPS DURATION NUMBER_OF_FRAMES NUMBER_OF_BYTES
  Stream #0:1(eng): Audio: aac (LC), 48000 Hz, stereo, fltp (default)
      Metadata:
        HANDLER_NAME    : SoundHandler
        VENDOR_ID       : [0][0][0][0]
        ENCODER         : Lavc61.19.100 aac
        BPS             : 192937
        DURATION        : 00:24:12.227000000
        NUMBER_OF_FRAMES: 68074
        NUMBER_OF_BYTES : 35023652
        _STATISTICS_WRITING_APP: mkvpropedit v66.0.0 ('Josie') 64-bit
        _STATISTICS_WRITING_DATE_UTC: 2025-06-28 12:14:20
        _STATISTICS_TAGS: BPS DURATION NUMBER_OF_FRAMES NUMBER_OF_BYTES
Input #1, mov,mp4,m4a,3gp,3g2,mj2, from 'G:\Аниме\Онгоинги\!_37_Зима_2025\JamClub\100 девушек, которые очень-очень-очень-очень-очень сильно тебя любят\ТВ-2\JamClub_The_100_Girlfriends_Who_Really_Really_Really_Really_REALLY_2_01.mp4':
  Metadata:
    major_brand     : isom
    minor_version   : 512
    compatible_brands: isomiso2avc1mp41
    encoder         : Lavf60.16.100
  Duration: 00:24:12.25, start: 0.000000, bitrate: 4188 kb/s
  Stream #1:0[0x1](und): Video: h264 (High) (avc1 / 0x31637661), yuv420p(progressive), 1920x1080 [SAR 1:1 DAR 16:9], 3990 kb/s, 23.98 fps, 23.98 tbr, 90k tbn (default)
      Metadata:
        handler_name    : VideoHandler
        vendor_id       : [0][0][0][0]
  Stream #1:1[0x2](eng): Audio: aac (LC) (mp4a / 0x6134706D), 48000 Hz, stereo, fltp, 191 kb/s (default)
      Metadata:
        handler_name    : SoundHandler
        vendor_id       : [0][0][0][0]
Stream mapping:
  Stream #0:0 (hevc) -> settb:default
  Stream #1:0 (h264) -> settb:default
  ssim:default -> Stream #0:0 (wrapped_avframe)
  Stream #0:1 -> #0:1 (aac (native) -> pcm_s16le (native))
Output #0, null, to 'pipe:':
  Metadata:
    COMPATIBLE_BRANDS: isomiso2avc1mp41
    MAJOR_BRAND     : isom
    MINOR_VERSION   : 512
    encoder         : Lavf61.7.100
  Stream #0:0: Video: wrapped_avframe, yuv420p10le(tv, bt709, progressive), 1920x1080 [SAR 1:1 DAR 16:9], q=2-31, 200 kb/s, 23.98 fps, 23.98 tbn
      Metadata:
        encoder         : Lavc61.19.100 wrapped_avframe
  Stream #0:1(eng): Audio: pcm_s16le, 48000 Hz, stereo, s16, 1536 kb/s (default)
      Metadata:
        HANDLER_NAME    : SoundHandler
        VENDOR_ID       : [0][0][0][0]
        _STATISTICS_TAGS: BPS DURATION NUMBER_OF_FRAMES NUMBER_OF_BYTES
        BPS             : 192937
        DURATION        : 00:24:12.227000000
        NUMBER_OF_FRAMES: 68074
        NUMBER_OF_BYTES : 35023652
        _STATISTICS_WRITING_APP: mkvpropedit v66.0.0 ('Josie') 64-bit
        _STATISTICS_WRITING_DATE_UTC: 2025-06-28 12:14:20
        encoder         : Lavc61.19.100 pcm_s16le
frame=  113 fps=0.0 q=-0.0 size=N/A time=00:00:04.71 bitrate=N/A speed=9.25x    frame=  269 fps=263 q=-0.0 size=N/A time=00:00:11.21 bitrate=N/A speed=  11x    frame=  474 fps=306 q=-0.0 size=N/A time=00:00:19.76 bitrate=N/A speed=12.8x    frame=  645 fps=313 q=-0.0 size=N/A time=00:00:26.90 bitrate=N/A speed=13.1x    frame=  899 fps=350 q=-0.0 size=N/A time=00:00:37.49 bitrate=N/A speed=14.6x    frame= 1152 fps=373 q=-0.0 size=N/A time=00:00:48.04 bitrate=N/A speed=15.5x    frame= 1312 fps=364 q=-0.0 size=N/A time=00:00:54.72 bitrate=N/A speed=15.2x    frame= 1547 fps=375 q=-0.0 size=N/A time=00:01:04.52 bitrate=N/A speed=15.6x    frame= 1770 fps=380 q=-0.0 size=N/A time=00:01:13.82 bitrate=N/A speed=15.9x    frame= 1969 fps=381 q=-0.0 size=N/A time=00:01:22.12 bitrate=N/A speed=15.9x    frame= 2148 fps=378 q=-0.0 size=N/A time=00:01:29.58 bitrate=N/A speed=15.8x    frame= 2391 fps=385 q=-0.0 size=N/A time=00:01:39.72 bitrate=N/A speed=16.1x    frame= 2603 fps=388 q=-0.0 size=N/A time=00:01:48.56 bitrate=N/A speed=16.2x    frame= 2816 fps=390 q=-0.0 size=N/A time=00:01:57.45 bitrate=N/A speed=16.3x    frame= 3051 fps=394 q=-0.0 size=N/A time=00:02:07.25 bitrate=N/A speed=16.4x    frame= 3247 fps=393 q=-0.0 size=N/A time=00:02:15.42 bitrate=N/A speed=16.4x    frame= 3472 fps=396 q=-0.0 size=N/A time=00:02:24.81 bitrate=N/A speed=16.5x    frame= 3664 fps=394 q=-0.0 size=N/A time=00:02:32.81 bitrate=N/A speed=16.4x    frame= 3830 fps=390 q=-0.0 size=N/A time=00:02:39.74 bitrate=N/A speed=16.3x    frame= 4017 fps=389 q=-0.0 size=N/A time=00:02:47.54 bitrate=N/A speed=16.2x    frame= 4178 fps=385 q=-0.0 size=N/A time=00:02:54.25 bitrate=N/A speed=16.1x    frame= 4397 fps=387 q=-0.0 size=N/A time=00:03:03.39 bitrate=N/A speed=16.1x    frame= 4663 fps=393 q=-0.0 size=N/A time=00:03:14.48 bitrate=N/A speed=16.4x    frame= 4917 fps=397 q=-0.0 size=N/A time=00:03:25.07 bitrate=N/A speed=16.5x    frame= 5140 fps=398 q=-0.0 size=N/A time=00:03:34.38 bitrate=N/A speed=16.6x    frame= 5411 fps=403 q=-0.0 size=N/A time=00:03:45.68 bitrate=N/A speed=16.8x    frame= 5660 fps=406 q=-0.0 size=N/A time=00:03:56.06 bitrate=N/A speed=16.9x    frame= 5911 fps=409 q=-0.0 size=N/A time=00:04:06.53 bitrate=N/A speed=17.1x    frame= 6156 fps=411 q=-0.0 size=N/A time=00:04:16.75 bitrate=N/A speed=17.1x    frame= 6400 fps=413 q=-0.0 size=N/A time=00:04:26.93 bitrate=N/A speed=17.2x    frame= 6628 fps=414 q=-0.0 size=N/A time=00:04:36.44 bitrate=N/A speed=17.3x    frame= 6833 fps=414 q=-0.0 size=N/A time=00:04:44.99 bitrate=N/A speed=17.3x    frame= 7099 fps=417 q=-0.0 size=N/A time=00:04:56.08 bitrate=N/A speed=17.4x    frame= 7368 fps=420 q=-0.0 size=N/A time=00:05:07.34 bitrate=N/A speed=17.5x    frame= 7604 fps=421 q=-0.0 size=N/A time=00:05:17.15 bitrate=N/A speed=17.6x    frame= 7822 fps=421 q=-0.0 size=N/A time=00:05:26.24 bitrate=N/A speed=17.6x    frame= 8064 fps=422 q=-0.0 size=N/A time=00:05:36.33 bitrate=N/A speed=17.6x    frame= 8289 fps=423 q=-0.0 size=N/A time=00:05:45.72 bitrate=N/A speed=17.6x    frame= 8540 fps=424 q=-0.0 size=N/A time=00:05:56.18 bitrate=N/A speed=17.7x    frame= 8786 fps=426 q=-0.0 size=N/A time=00:06:06.44 bitrate=N/A speed=17.8x    frame= 9020 fps=426 q=-0.0 size=N/A time=00:06:16.20 bitrate=N/A speed=17.8x    frame= 9261 fps=427 q=-0.0 size=N/A time=00:06:26.26 bitrate=N/A speed=17.8x    frame= 9493 fps=428 q=-0.0 size=N/A time=00:06:35.93 bitrate=N/A speed=17.8x    frame= 9727 fps=428 q=-0.0 size=N/A time=00:06:45.69 bitrate=N/A speed=17.9x    frame= 9973 fps=429 q=-0.0 size=N/A time=00:06:55.95 bitrate=N/A speed=17.9x    frame=10206 fps=430 q=-0.0 size=N/A time=00:07:05.67 bitrate=N/A speed=17.9x    frame=10443 fps=431 q=-0.0 size=N/A time=00:07:15.56 bitrate=N/A speed=  18x    frame=10704 fps=432 q=-0.0 size=N/A time=00:07:26.44 bitrate=N/A speed=  18x    frame=10926 fps=432 q=-0.0 size=N/A time=00:07:35.70 bitrate=N/A speed=  18x    frame=11169 fps=433 q=-0.0 size=N/A time=00:07:45.84 bitrate=N/A speed=  18x    frame=11396 fps=433 q=-0.0 size=N/A time=00:07:55.30 bitrate=N/A speed=18.1x    frame=11672 fps=435 q=-0.0 size=N/A time=00:08:06.81 bitrate=N/A speed=18.1x    frame=11895 fps=435 q=-0.0 size=N/A time=00:08:16.12 bitrate=N/A speed=18.1x    frame=12114 fps=435 q=-0.0 size=N/A time=00:08:25.25 bitrate=N/A speed=18.1x    frame=12359 fps=435 q=-0.0 size=N/A time=00:08:35.47 bitrate=N/A speed=18.2x    frame=12596 fps=436 q=-0.0 size=N/A time=00:08:45.35 bitrate=N/A speed=18.2x    frame=12843 fps=436 q=-0.0 size=N/A time=00:08:55.66 bitrate=N/A speed=18.2x    frame=13083 fps=437 q=-0.0 size=N/A time=00:09:05.67 bitrate=N/A speed=18.2x    frame=13307 fps=437 q=-0.0 size=N/A time=00:09:15.01 bitrate=N/A speed=18.2x    frame=13569 fps=438 q=-0.0 size=N/A time=00:09:25.94 bitrate=N/A speed=18.3x    frame=13800 fps=438 q=-0.0 size=N/A time=00:09:35.57 bitrate=N/A speed=18.3x    frame=14030 fps=438 q=-0.0 size=N/A time=00:09:45.16 bitrate=N/A speed=18.3x    frame=14287 fps=439 q=-0.0 size=N/A time=00:09:55.88 bitrate=N/A speed=18.3x    frame=14545 fps=440 q=-0.0 size=N/A time=00:10:06.64 bitrate=N/A speed=18.4x    frame=14775 fps=440 q=-0.0 size=N/A time=00:10:16.24 bitrate=N/A speed=18.4x    frame=14998 fps=440 q=-0.0 size=N/A time=00:10:25.54 bitrate=N/A speed=18.4x    frame=15237 fps=441 q=-0.0 size=N/A time=00:10:35.50 bitrate=N/A speed=18.4x    frame=15485 fps=441 q=-0.0 size=N/A time=00:10:45.85 bitrate=N/A speed=18.4x    frame=15718 fps=441 q=-0.0 size=N/A time=00:10:55.57 bitrate=N/A speed=18.4x    frame=15934 fps=441 q=-0.0 size=N/A time=00:11:04.58 bitrate=N/A speed=18.4x    frame=16206 fps=442 q=-0.0 size=N/A time=00:11:15.92 bitrate=N/A speed=18.4x    frame=16473 fps=443 q=-0.0 size=N/A time=00:11:27.06 bitrate=N/A speed=18.5x    frame=16667 fps=442 q=-0.0 size=N/A time=00:11:35.15 bitrate=N/A speed=18.4x    frame=16929 fps=443 q=-0.0 size=N/A time=00:11:46.08 bitrate=N/A speed=18.5x    frame=17149 fps=443 q=-0.0 size=N/A time=00:11:55.25 bitrate=N/A speed=18.5x    frame=17389 fps=443 q=-0.0 size=N/A time=00:12:05.26 bitrate=N/A speed=18.5x    frame=17604 fps=443 q=-0.0 size=N/A time=00:12:14.23 bitrate=N/A speed=18.5x    frame=17791 fps=442 q=-0.0 size=N/A time=00:12:22.03 bitrate=N/A speed=18.4x    frame=17974 fps=441 q=-0.0 size=N/A time=00:12:29.66 bitrate=N/A speed=18.4x    frame=18208 fps=441 q=-0.0 size=N/A time=00:12:39.42 bitrate=N/A speed=18.4x    frame=18470 fps=442 q=-0.0 size=N/A time=00:12:50.35 bitrate=N/A speed=18.4x    frame=18710 fps=442 q=-0.0 size=N/A time=00:13:00.36 bitrate=N/A speed=18.4x    frame=18942 fps=442 q=-0.0 size=N/A time=00:13:10.03 bitrate=N/A speed=18.4x    frame=19224 fps=443 q=-0.0 size=N/A time=00:13:21.80 bitrate=N/A speed=18.5x    frame=19480 fps=444 q=-0.0 size=N/A time=00:13:32.47 bitrate=N/A speed=18.5x    frame=19707 fps=444 q=-0.0 size=N/A time=00:13:41.94 bitrate=N/A speed=18.5x    frame=19958 fps=444 q=-0.0 size=N/A time=00:13:52.41 bitrate=N/A speed=18.5x    frame=20227 fps=445 q=-0.0 size=N/A time=00:14:03.63 bitrate=N/A speed=18.6x    frame=20489 fps=446 q=-0.0 size=N/A time=00:14:14.56 bitrate=N/A speed=18.6x    frame=20760 fps=447 q=-0.0 size=N/A time=00:14:25.86 bitrate=N/A speed=18.6x    frame=21018 fps=448 q=-0.0 size=N/A time=00:14:36.62 bitrate=N/A speed=18.7x    frame=21271 fps=448 q=-0.0 size=N/A time=00:14:47.17 bitrate=N/A speed=18.7x    frame=21542 fps=449 q=-0.0 size=N/A time=00:14:58.48 bitrate=N/A speed=18.7x    frame=21804 fps=449 q=-0.0 size=N/A time=00:15:09.40 bitrate=N/A speed=18.7x    frame=22034 fps=449 q=-0.0 size=N/A time=00:15:19.00 bitrate=N/A speed=18.7x    frame=22293 fps=450 q=-0.0 size=N/A time=00:15:29.80 bitrate=N/A speed=18.8x    frame=22533 fps=450 q=-0.0 size=N/A time=00:15:39.81 bitrate=N/A speed=18.8x    frame=22724 fps=449 q=-0.0 size=N/A time=00:15:47.78 bitrate=N/A speed=18.7x    frame=22981 fps=450 q=-0.0 size=N/A time=00:15:58.49 bitrate=N/A speed=18.8x    frame=23232 fps=450 q=-0.0 size=N/A time=00:16:08.96 bitrate=N/A speed=18.8x    frame=23503 fps=451 q=-0.0 size=N/A time=00:16:20.27 bitrate=N/A speed=18.8x    frame=23765 fps=452 q=-0.0 size=N/A time=00:16:31.19 bitrate=N/A speed=18.8x    frame=24018 fps=452 q=-0.0 size=N/A time=00:16:41.75 bitrate=N/A speed=18.8x    frame=24245 fps=452 q=-0.0 size=N/A time=00:16:51.21 bitrate=N/A speed=18.8x    frame=24509 fps=452 q=-0.0 size=N/A time=00:17:02.22 bitrate=N/A speed=18.9x    frame=24750 fps=452 q=-0.0 size=N/A time=00:17:12.28 bitrate=N/A speed=18.9x    frame=24983 fps=452 q=-0.0 size=N/A time=00:17:21.99 bitrate=N/A speed=18.9x    frame=25202 fps=452 q=-0.0 size=N/A time=00:17:31.13 bitrate=N/A speed=18.9x    frame=25458 fps=453 q=-0.0 size=N/A time=00:17:41.81 bitrate=N/A speed=18.9x    frame=25673 fps=452 q=-0.0 size=N/A time=00:17:50.77 bitrate=N/A speed=18.9x    frame=25922 fps=453 q=-0.0 size=N/A time=00:18:01.16 bitrate=N/A speed=18.9x    frame=26175 fps=453 q=-0.0 size=N/A time=00:18:11.71 bitrate=N/A speed=18.9x    frame=26422 fps=453 q=-0.0 size=N/A time=00:18:22.01 bitrate=N/A speed=18.9x    frame=26674 fps=453 q=-0.0 size=N/A time=00:18:32.52 bitrate=N/A speed=18.9x    frame=26908 fps=453 q=-0.0 size=N/A time=00:18:42.28 bitrate=N/A speed=18.9x    frame=27095 fps=453 q=-0.0 size=N/A time=00:18:50.08 bitrate=N/A speed=18.9x    frame=27378 fps=453 q=-0.0 size=N/A time=00:19:01.89 bitrate=N/A speed=18.9x    frame=27646 fps=454 q=-0.0 size=N/A time=00:19:13.06 bitrate=N/A speed=18.9x    frame=27908 fps=455 q=-0.0 size=N/A time=00:19:23.99 bitrate=N/A speed=  19x    frame=28200 fps=455 q=-0.0 size=N/A time=00:19:36.17 bitrate=N/A speed=  19x    frame=28482 fps=456 q=-0.0 size=N/A time=00:19:47.93 bitrate=N/A speed=  19x    frame=28725 fps=456 q=-0.0 size=N/A time=00:19:58.07 bitrate=N/A speed=  19x    frame=29003 fps=457 q=-0.0 size=N/A time=00:20:09.66 bitrate=N/A speed=19.1x    frame=29259 fps=457 q=-0.0 size=N/A time=00:20:20.34 bitrate=N/A speed=19.1x    frame=29538 fps=458 q=-0.0 size=N/A time=00:20:31.98 bitrate=N/A speed=19.1x    frame=29807 fps=458 q=-0.0 size=N/A time=00:20:43.20 bitrate=N/A speed=19.1x    frame=30047 fps=459 q=-0.0 size=N/A time=00:20:53.21 bitrate=N/A speed=19.1x    frame=30304 fps=459 q=-0.0 size=N/A time=00:21:03.92 bitrate=N/A speed=19.1x    frame=30546 fps=459 q=-0.0 size=N/A time=00:21:14.02 bitrate=N/A speed=19.1x    frame=30757 fps=459 q=-0.0 size=N/A time=00:21:22.82 bitrate=N/A speed=19.1x    frame=30922 fps=458 q=-0.0 size=N/A time=00:21:29.70 bitrate=N/A speed=19.1x    frame=31136 fps=457 q=-0.0 size=N/A time=00:21:38.63 bitrate=N/A speed=19.1x    frame=31378 fps=457 q=-0.0 size=N/A time=00:21:48.72 bitrate=N/A speed=19.1x    frame=31619 fps=457 q=-0.0 size=N/A time=00:21:58.77 bitrate=N/A speed=19.1x    frame=31858 fps=457 q=-0.0 size=N/A time=00:22:08.74 bitrate=N/A speed=19.1x    frame=32123 fps=458 q=-0.0 size=N/A time=00:22:19.79 bitrate=N/A speed=19.1x    frame=32383 fps=458 q=-0.0 size=N/A time=00:22:30.64 bitrate=N/A speed=19.1x    frame=32626 fps=458 q=-0.0 size=N/A time=00:22:40.77 bitrate=N/A speed=19.1x    frame=32835 fps=458 q=-0.0 size=N/A time=00:22:49.49 bitrate=N/A speed=19.1x    frame=33021 fps=457 q=-0.0 size=N/A time=00:22:57.25 bitrate=N/A speed=19.1x    frame=33266 fps=457 q=-0.0 size=N/A time=00:23:07.46 bitrate=N/A speed=19.1x    frame=33476 fps=457 q=-0.0 size=N/A time=00:23:16.22 bitrate=N/A speed=19.1x    frame=33682 fps=457 q=-0.0 size=N/A time=00:23:24.82 bitrate=N/A speed=  19x    frame=33887 fps=456 q=-0.0 size=N/A time=00:23:33.37 bitrate=N/A speed=  19x    frame=34049 fps=455 q=-0.0 size=N/A time=00:23:40.12 bitrate=N/A speed=  19x    frame=34168 fps=454 q=-0.0 size=N/A time=00:23:45.09 bitrate=N/A speed=18.9x    frame=34279 fps=452 q=-0.0 size=N/A time=00:23:49.71 bitrate=N/A speed=18.9x    frame=34389 fps=450 q=-0.0 size=N/A time=00:23:54.30 bitrate=N/A speed=18.8x    frame=34506 fps=449 q=-0.0 size=N/A time=00:23:59.18 bitrate=N/A speed=18.7x    frame=34708 fps=448 q=-0.0 size=N/A time=00:24:07.61 bitrate=N/A speed=18.7x    [Parsed_ssim_10 @ 000001d2ce3a6240] SSIM Y:0.995686 (23.651257) U:0.994814 (22.851737) V:0.994561 (22.644810) All:0.995353 (23.328477)
[out#0/null @ 000001d2c1d62f00] video:14961KiB audio:272296KiB subtitle:0KiB other streams:0KiB global headers:0KiB muxing overhead: unknown
frame=34818 fps=448 q=-0.0 Lsize=N/A time=00:24:12.20 bitrate=N/A speed=18.7x    
